<svg version="1.1" id="Layer_1" xmlns="http://www.w3.org/2000/svg" xmlns:xlink="http://www.w3.org/1999/xlink" x="0px" y="0px"
	 width="100%" viewBox="0 0 110 108" enable-background="new 0 0 110 108" xml:space="preserve">
<path fill="#204322" opacity="1.000000" stroke="none" 
	d="
M63.000000,109.000000 
	C42.000000,109.000000 21.500000,109.000000 1.000000,109.000000 
	C1.000000,73.000000 1.000000,37.000000 1.000000,1.000000 
	C37.666668,1.000000 74.333336,1.000000 111.000000,1.000000 
	C111.000000,37.000000 111.000000,73.000000 111.000000,109.000000 
	C95.166664,109.000000 79.333336,109.000000 63.000000,109.000000 
M95.968483,22.257591 
	C95.968483,19.329441 95.968483,16.401289 95.968483,13.473139 
	C95.183220,13.446061 94.397957,13.418983 93.612686,13.391904 
	C93.400307,15.942150 93.187920,18.492395 92.043037,21.009535 
	C87.550842,21.015560 83.051079,20.855776 78.567932,21.060257 
	C67.364540,21.571249 58.779606,29.641283 57.342487,40.607052 
	C56.831360,44.507187 57.765774,46.738480 62.201862,46.548882 
	C66.520393,46.364307 70.860779,46.628540 75.173447,46.380615 
	C88.041885,45.640850 96.349556,36.236450 95.968483,22.257591 
M30.265905,59.911884 
	C30.357794,78.660011 45.195057,93.475014 65.989647,92.474731 
	C71.132820,92.227341 76.298668,92.490852 81.452637,92.417191 
	C86.778313,92.341072 87.894150,91.056717 87.476746,85.797905 
	C86.047379,67.789108 73.295853,55.715111 54.994293,55.207630 
	C48.680363,55.032547 42.357216,55.189674 35.461353,54.564137 
	C35.194725,51.603245 35.127422,48.603668 34.563988,45.700375 
	C34.336559,44.528450 33.024033,43.567104 32.205315,42.509930 
	C31.550348,43.554039 30.378786,44.574844 30.330448,45.646324 
	C30.128471,50.123089 30.263817,54.615074 30.265905,59.911884 
M21.969025,49.372005 
	C22.138599,50.758137 22.308174,52.144268 22.477749,53.530399 
	C22.912912,53.529354 23.348078,53.528313 23.783241,53.527271 
	C24.146015,52.507725 24.694361,51.514580 24.843725,50.464672 
	C27.075634,34.776093 35.749493,26.093191 51.274693,23.946318 
	C52.368389,23.795078 53.365520,22.945557 55.472935,21.884161 
	C40.042667,19.015516 24.811172,31.856453 21.969025,49.372005 
M63.101021,13.753289 
	C48.292976,8.683310 28.329948,17.987011 28.074738,24.823017 
	C28.549860,24.851402 29.211889,25.098976 29.472359,24.876472 
	C39.069374,16.678286 49.943214,13.580024 62.396423,16.352880 
	C62.664207,16.412506 63.289589,14.866105 63.101021,13.753289 
M94.074165,50.629173 
	C100.643402,44.139393 103.062416,37.473103 100.495598,33.616287 
	C98.192764,38.024879 96.689690,43.416077 93.229942,46.816402 
	C89.793839,50.193470 84.389267,51.567646 79.847946,53.820171 
	C85.230782,55.604172 89.584938,54.165539 94.074165,50.629173 
z"/>
<path fill="#6ECD75" opacity="1.000000" stroke="none" 
	d="
M36.038280,55.195049 
	C42.357216,55.189674 48.680363,55.032547 54.994293,55.207630 
	C73.295853,55.715111 86.047379,67.789108 87.476746,85.797905 
	C87.894150,91.056717 86.778313,92.341072 81.452637,92.417191 
	C76.298668,92.490852 71.132820,92.227341 65.989647,92.474731 
	C45.195057,93.475014 30.357794,78.660011 30.591553,59.568954 
	C42.846237,66.064575 54.736233,72.973419 66.755325,79.649849 
	C68.204697,80.454956 70.352570,80.002594 72.176697,80.133049 
	C71.091759,78.746674 70.291718,76.858315 68.875969,76.054848 
	C59.198555,70.562698 49.336876,65.394356 39.681664,59.864834 
	C38.095860,58.956650 37.234470,56.783550 36.038280,55.195049 
z"/>
<path fill="#6DCB75" opacity="1.000000" stroke="none" 
	d="
M95.845108,23.176006 
	C96.349556,36.236450 88.041885,45.640850 75.173447,46.380615 
	C70.860779,46.628540 66.520393,46.364307 62.201862,46.548882 
	C57.765774,46.738480 56.831360,44.507187 57.342487,40.607052 
	C58.779606,29.641283 67.364540,21.571249 78.567932,21.060257 
	C83.051079,20.855776 87.550842,21.015560 92.427612,21.356476 
	C91.446129,22.832357 90.206108,24.180496 88.691620,25.051291 
	C82.947411,28.354074 77.091187,31.461653 71.333031,34.740887 
	C70.104721,35.440407 69.112106,36.553783 68.010902,37.476498 
	C68.287270,37.917458 68.563629,38.358418 68.839989,38.799374 
	C70.985909,37.818890 73.245430,37.028126 75.257103,35.823471 
	C82.166595,31.685852 88.989319,27.403313 95.845108,23.176006 
z"/>
<path fill="#478662" opacity="1.000000" stroke="none" 
	d="
M35.749817,54.879593 
	C37.234470,56.783550 38.095860,58.956650 39.681664,59.864834 
	C49.336876,65.394356 59.198555,70.562698 68.875969,76.054848 
	C70.291718,76.858315 71.091759,78.746674 72.176697,80.133049 
	C70.352570,80.002594 68.204697,80.454956 66.755325,79.649849 
	C54.736233,72.973419 42.846237,66.064575 30.596355,59.163750 
	C30.263817,54.615074 30.128471,50.123089 30.330448,45.646324 
	C30.378786,44.574844 31.550348,43.554039 32.205315,42.509930 
	C33.024033,43.567104 34.336559,44.528450 34.563988,45.700375 
	C35.127422,48.603668 35.194725,51.603245 35.749817,54.879593 
z"/>
<path fill="#C2C5C2" opacity="1.000000" stroke="none" 
	d="
M21.998520,48.956497 
	C24.811172,31.856453 40.042667,19.015516 55.472935,21.884161 
	C53.365520,22.945557 52.368389,23.795078 51.274693,23.946318 
	C35.749493,26.093191 27.075634,34.776093 24.843725,50.464672 
	C24.694361,51.514580 24.146015,52.507725 23.783241,53.527271 
	C23.348078,53.528313 22.912912,53.529354 22.477749,53.530399 
	C22.308174,52.144268 22.138599,50.758137 21.998520,48.956497 
z"/>
<path fill="#C3C6C3" opacity="1.000000" stroke="none" 
	d="
M63.424587,13.911098 
	C63.289589,14.866105 62.664207,16.412506 62.396423,16.352880 
	C49.943214,13.580024 39.069374,16.678286 29.472359,24.876472 
	C29.211889,25.098976 28.549860,24.851402 28.074738,24.823017 
	C28.329948,17.987011 48.292976,8.683310 63.424587,13.911098 
z"/>
<path fill="#478565" opacity="1.000000" stroke="none" 
	d="
M95.906799,22.716801 
	C88.989319,27.403313 82.166595,31.685852 75.257103,35.823471 
	C73.245430,37.028126 70.985909,37.818890 68.839989,38.799374 
	C68.563629,38.358418 68.287270,37.917458 68.010902,37.476498 
	C69.112106,36.553783 70.104721,35.440407 71.333031,34.740887 
	C77.091187,31.461653 82.947411,28.354074 88.691620,25.051291 
	C90.206108,24.180496 91.446129,22.832357 92.893860,21.373028 
	C93.187920,18.492395 93.400307,15.942150 93.612686,13.391904 
	C94.397957,13.418983 95.183220,13.446061 95.968483,13.473139 
	C95.968483,16.401289 95.968483,19.329441 95.906799,22.716801 
z"/>
<path fill="#C2C5C2" opacity="1.000000" stroke="none" 
	d="
M93.803070,50.875313 
	C89.584938,54.165539 85.230782,55.604172 79.847946,53.820171 
	C84.389267,51.567646 89.793839,50.193470 93.229942,46.816402 
	C96.689690,43.416077 98.192764,38.024879 100.495598,33.616287 
	C103.062416,37.473103 100.643402,44.139393 93.803070,50.875313 
z"/>
</svg>